PathFileType	4	(X/Y/Z)	Patient4_TMGait_0pt7_01_right_30.trc.trc
DataRate	CameraRate	NumFrames	NumMarkers	Units	OrigDataRate	OrigDataStartFrame	OrigNumFrames
84.337349397591	84.337349397591	5	33	mm	84.337349397591	1	       141
Frame#	Time	Sacral			L.Shoulder			Chest			R.Shoulder			Neck			R.ASIS			L.ASIS			R.Thigh.Superior			R.Thigh.Lateral			R.Thigh.Inferior			R.Patella			L.Thigh.Superior			L.Thigh.Lateral			L.Thigh.Inferior			L.Patella			L.Shank.Superior			L.Shank.Lateral			L.Shank.Inferior			R.Shank.Superior			R.Shank.Lateral			R.Shank.Inferior			R.Heel			R.Midfoot.Superior			R.Midfoot.Lateral			R.Toe			L.Heel			L.Midfoot.Lateral			L.Midfoot.Superior			L.Toe			L.Elbow			L.Wrist			R.Elbow			R.Wrist			
		X1	Y1	Z1	X2	Y2	Z2	X3	Y3	Z3	X4	Y4	Z4	X5	Y5	Z5	X6	Y6	Z6	X7	Y7	Z7	X8	Y8	Z8	X9	Y9	Z9	X10	Y10	Z10	X11	Y11	Z11	X12	Y12	Z12	X13	Y13	Z13	X14	Y14	Z14	X15	Y15	Z15	X16	Y16	Z16	X17	Y17	Z17	X18	Y18	Z18	X19	Y19	Z19	X20	Y20	Z20	X21	Y21	Z21	X22	Y22	Z22	X23	Y23	Z23	X24	Y24	Z24	X25	Y25	Z25	X26	Y26	Z26	X27	Y27	Z27	X28	Y28	Z28	X29	Y29	Z29	X30	Y30	Z30	X31	Y31	Z31	X32	Y32	Z32	X33	Y33	Z33	

1	34.030000000000	801.298893641311	1008.186795278936	457.153913663941	977.769277333118	1419.518762829834	249.297322992906	1073.831378026934	1368.026230266015	421.869930055372	980.539622610219	1458.964145773402	582.842024093573	973.000103915330	1497.100496816657	397.912117146435	1023.437400465577	949.358688617585	584.199080909366	1022.348589752653	965.726507424162	310.200015270022	1115.765070610191	795.562872766750	582.173313627467	1076.262214951277	675.605810319815	663.268098825866	1182.927724665802	643.206710532712	604.740304290387	1208.353566040012	531.613930199679	635.248159883313	1062.394958117376	756.735425143685	338.331847740903	968.680800653352	642.645425414601	278.656350889673	1052.866013387157	564.499086225551	338.808901786328	1051.418789824602	496.656608819518	347.424499695322	1029.336136870805	424.384214764155	344.025073275919	941.087046662031	303.108971383829	308.107939088434	1010.380831165884	198.674220590005	376.414931359298	1137.315513497827	450.483015877437	630.481908127673	1009.506965413176	403.834329342246	669.519140753701	1011.468249988360	293.344048838675	621.879971844430	821.545016229911	207.399316888712	559.853366199960	987.365961272482	180.314423027187	637.005396978351	873.124764751950	165.154519096352	649.161592388085	1059.353745341166	81.712951591190	686.744643908236	896.161835865786	37.759768388065	433.614172746273	969.235674039965	34.759358551133	351.199119278815	1050.851661818687	99.755012926441	373.258257980805	1179.981167463419	51.116351063789	348.163545707173	1012.754424872615	1070.695742273902	134.738593780944	1127.920496505566	836.679082748564	130.053315366119	932.459432027212	1133.128564981871	738.323213301301	1147.277872345801	993.523985168133	701.095531140866	
2	34.041857142857	799.593770836796	1007.771221246006	456.293644094817	976.929830778285	1418.651584534476	247.953397489928	1072.071207562725	1367.866313364917	421.233980671409	977.737849430162	1459.076352914276	581.470582895547	971.289845164176	1496.780319583577	396.337070436777	1021.727407245165	949.523338597845	584.171928633928	1021.320044431539	965.918429709847	310.092193830659	1114.812501540137	797.348391253649	581.841754510325	1077.025773040012	676.952790972759	663.125695883449	1183.564915177328	645.523001775963	604.018998153820	1210.900831794436	535.758531847206	634.765380107990	1059.479840495623	756.013664048504	338.595951967030	964.596333464492	642.704017238595	278.462558180917	1047.427467281912	563.723217997233	338.940078178652	1045.165377580283	496.118694042655	347.650070291219	1022.751713244800	423.987505474937	344.184095121492	933.942611437182	303.206235105797	308.024768504506	1002.337649276684	198.386026072301	376.601596057657	1143.947241569870	452.687964167914	631.382940197049	1020.249195772259	399.583752265312	672.651781651777	1028.001664317731	289.207212138860	625.938729036392	843.741674418729	193.009031877347	567.030490518741	1010.835712173392	174.783239876746	642.595950044415	898.027375267770	154.208426003654	655.897788955673	1087.722665646458	80.530918509515	692.182227795461	887.365776849412	37.761888498475	433.631654737580	960.492725413773	34.760466950535	351.246474634915	1042.214339341331	99.603112052958	373.425875538991	1171.299022057255	50.920978490046	348.304899151535	1020.928235824922	1072.255750995495	132.407134968723	1145.639245706623	843.879054734569	126.708109996606	919.780740296230	1135.223567351121	737.076143182364	1119.763388098442	977.317196800448	710.195510486340	
3	34.053714285714	797.935259436657	1007.378515077019	455.461497161790	976.101617773251	1417.795980583077	246.649567508093	1070.340719783500	1367.711413156534	420.623424528310	974.986555298478	1459.196274307158	580.132384951245	969.605326166346	1496.463661067490	394.793070264625	1020.023334013581	949.659658516358	584.155949038706	1020.322416866731	966.109033477860	310.007670282745	1113.798297640499	798.976559302413	581.481948168750	1077.617270334577	678.158436460701	662.934800497763	1183.986153203396	647.615131964841	603.235367077334	1213.205054372520	539.716567928891	634.204968934988	1056.595194176321	755.296597430299	338.840125247614	960.534699134277	642.761975356901	278.287636359151	1042.045166584093	562.956870063760	339.061712034138	1038.985830221496	495.589236536057	347.872280449845	1016.241455247246	423.598377124195	344.343871025398	926.871283272978	303.307569756465	307.949720746523	994.390948009927	198.107102569427	376.782639654164	1150.334838821292	454.792055641926	632.204628853827	1030.849954334664	395.313379044353	675.742140786928	1044.395628030899	285.137574558476	629.930104726880	865.932976848951	178.818670106020	574.157484032480	1034.210948440612	169.368701817635	648.104422778883	922.883876860437	143.448400716870	662.573698241625	1115.925609966945	79.469928559921	697.500714420276	878.673533547383	37.763230095377	433.646819697276	951.848873601971	34.762342309192	351.293802173685	1033.671003857475	99.452760447316	373.591456359129	1162.712864309102	50.725392473139	348.442749117742	1028.865612322950	1073.801587568755	130.160866915551	1163.016285465547	851.077406034849	123.477736534655	907.444589686609	1137.305832651742	735.866581210219	1092.215278836459	961.580210857921	719.215444913010	
4	34.065571428571	796.355730567261	1007.020123816365	454.689131959916	975.290115652724	1416.961002384358	245.434081539110	1068.662265110444	1367.560563808533	420.072005330377	972.329609177611	1459.322644523459	578.870619383902	967.964662907928	1496.148286067870	393.325809169404	1018.330274584573	949.746753285561	584.173695511402	1019.382007892291	966.292653884768	309.975973470534	1112.642499995890	800.288349454634	581.085833694130	1077.852905433976	679.076883730842	662.662426926093	1183.970949490228	649.268414904317	602.337207935092	1215.011970809327	543.315109000989	633.484246460467	1053.749172672698	754.578558493165	339.065085123599	956.498558362913	642.815887508301	278.157641361796	1036.735995778865	562.202148183824	339.185349023514	1032.905754831553	495.067780773631	348.105545313877	1009.826680111206	423.219461129993	344.517751038695	919.892146499778	303.417747577809	307.891966535418	986.567154781742	197.843492906591	376.960507417267	1156.241783206124	456.698595145293	632.859844661165	1041.180026290347	391.000329868292	678.717748313725	1060.526246146664	281.211370995818	633.752677810234	888.153919857616	165.013363603940	581.136682239925	1057.419755215361	164.225529285322	653.392626435896	947.698108976581	133.064516552941	669.070025991084	1143.836408908291	78.725872044655	702.507284628192	870.109431833504	37.763951410944	433.657868724036	943.324825745366	34.766003013826	351.341957048576	1025.239350922415	99.305762998604	373.755144155483	1154.240431728659	50.529279761570	348.575318750683	1036.341464640813	1075.313637200794	128.085850381877	1179.777644228733	858.358244902685	120.495181207763	895.706550725691	1139.388285623261	734.736274785950	1064.519018255563	946.835148543649	728.057138434559	
5	34.077428571429	794.874862978716	1006.703630710828	454.000753748767	974.498428793795	1416.152869342593	244.348560525827	1067.052836733141	1367.411754437620	419.609585807722	969.801646604829	1459.450411287568	577.724375114614	966.380807565038	1495.830026978364	391.978511370278	1016.656867323224	949.775474796788	584.249086304349	1018.517244538019	966.463654133594	310.022326954378	1111.274605665582	801.153551372348	580.657601180614	1077.573002024139	679.587330849346	662.291061690812	1183.337729184507	650.314252917927	601.294549474155	1216.110110245785	546.420003477584	632.537848300599	1050.940969797913	753.851714368916	339.276777959324	952.483791427015	642.862465174340	278.096160495018	1031.500396346045	561.458757070122	339.328741681581	1026.929005685843	494.550913624455	348.368735865671	1003.506781801122	422.851626818470	344.721692797892	913.003260837607	303.540724996131	307.859615711720	978.864340068625	197.598725165929	377.141213215902	1161.479990492875	458.335008360147	633.278996868177	1051.135495829905	386.634637819603	681.507064346141	1076.291242265521	277.505858402608	637.310130454754	910.439265753653	151.757738465416	587.867327469618	1080.404331876786	159.510889012661	658.320949300190	972.483615120711	123.229906723752	675.262056351280	1171.358553199905	78.500526928525	707.003780607046	861.667830138654	37.764691625286	433.663215531539	934.912529530661	34.772418766105	351.391877494826	1016.909502009579	99.163582122590	373.918178473318	1145.871570927508	50.333005859151	348.701325527805	1043.178822713462	1076.770606819071	126.250706629980	1195.723120199761	865.812019010483	117.874429762253	884.740318527776	1141.484075913313	733.717844272956	1036.570585221741	933.540038785729	736.629330731598	
